<svg xmlns="http://www.w3.org/2000/svg" viewBox="0 0 1600 950" role="img" aria-labelledby="title desc">
  <title id="title">Software engineer working at laptop</title>
  <desc id="desc">Vector background illustration of a software engineer wearing headphones and glasses, surrounded by code, cloud, and growth symbols.</desc>
  <defs>
    <linearGradient id="bg" x1="0" x2="1" y1="0" y2="1">
      <stop offset="0" stop-color="#071114"/>
      <stop offset=".55" stop-color="#102a2a"/>
      <stop offset="1" stop-color="#173f46"/>
    </linearGradient>
    <linearGradient id="screen" x1="0" x2="1">
      <stop offset="0" stop-color="#0f766e"/>
      <stop offset="1" stop-color="#2563eb"/>
    </linearGradient>
    <filter id="softShadow" x="-20%" y="-20%" width="140%" height="140%">
      <feDropShadow dx="0" dy="24" stdDeviation="24" flood-color="#000" flood-opacity=".28"/>
    </filter>
  </defs>

  <rect width="1600" height="950" fill="url(#bg)"/>
  <g opacity=".16" fill="none" stroke="#5eead4" stroke-width="2">
    <path d="M104 170h160l42 42h202"/>
    <path d="M1130 124h172l54 54h146"/>
    <path d="M1082 748h144l62-62h196"/>
    <circle cx="310" cy="212" r="7" fill="#5eead4"/>
    <circle cx="1356" cy="178" r="7" fill="#5eead4"/>
    <circle cx="1288" cy="686" r="7" fill="#5eead4"/>
  </g>

  <g opacity=".18" fill="none" stroke="#bfdbfe" stroke-width="3" stroke-linecap="round">
    <path d="M118 676c70-82 160-86 222-14 56 64 144 65 204 2"/>
    <path d="M1116 370c42-70 110-86 174-44 38 25 82 26 124 0"/>
    <path d="M1240 512h148m-116-48h182m-212 96h112"/>
  </g>

  <g transform="translate(1028 168)" opacity=".92">
    <rect x="0" y="0" width="344" height="224" rx="22" fill="#0d1f24" stroke="#5eead4" stroke-width="4"/>
    <circle cx="34" cy="34" r="7" fill="#ef4444"/>
    <circle cx="58" cy="34" r="7" fill="#f59e0b"/>
    <circle cx="82" cy="34" r="7" fill="#22c55e"/>
    <path d="M52 86h76M52 122h132M52 158h98" stroke="#5eead4" stroke-width="10" stroke-linecap="round"/>
    <path d="M214 88l34 34-34 34M170 88l-34 34 34 34" fill="none" stroke="#bfdbfe" stroke-width="12" stroke-linecap="round" stroke-linejoin="round"/>
  </g>

  <g transform="translate(1070 530)" opacity=".95">
    <path d="M0 214h360" stroke="#5eead4" stroke-width="8" stroke-linecap="round"/>
    <rect x="34" y="112" width="52" height="102" rx="8" fill="#2563eb"/>
    <rect x="120" y="72" width="52" height="142" rx="8" fill="#0f766e"/>
    <rect x="206" y="24" width="52" height="190" rx="8" fill="#f59e0b"/>
    <path d="M48 74c72-54 130-72 212-54" fill="none" stroke="#f8fafc" stroke-width="8" stroke-linecap="round"/>
    <path d="M240 0l42 18-38 26" fill="none" stroke="#f8fafc" stroke-width="8" stroke-linecap="round" stroke-linejoin="round"/>
  </g>

  <g transform="translate(250 198)" filter="url(#softShadow)">
    <ellipse cx="356" cy="612" rx="318" ry="48" fill="#020617" opacity=".34"/>
    <rect x="98" y="472" width="520" height="58" rx="20" fill="#0b161a"/>
    <rect x="170" y="232" width="374" height="250" rx="24" fill="#17202a" stroke="#334155" stroke-width="5"/>
    <rect x="198" y="260" width="318" height="186" rx="14" fill="url(#screen)"/>
    <path d="M238 310h118M238 352h168M238 394h92" stroke="#e0f2fe" stroke-width="12" stroke-linecap="round" opacity=".88"/>
    <path d="M408 312l34 34-34 34M372 312l-34 34 34 34" fill="none" stroke="#5eead4" stroke-width="13" stroke-linecap="round" stroke-linejoin="round"/>

    <path d="M346 216c-78 0-132 62-132 150v82h264v-82c0-88-54-150-132-150Z" fill="#c76d2f"/>
    <path d="M266 236c28-56 128-72 178-10 20 25 27 62 22 102-68-10-128-42-164-88-12 36-36 64-72 86-5-36 6-68 36-90Z" fill="#101820"/>
    <circle cx="250" cy="346" r="32" fill="#f2b78d"/>
    <circle cx="444" cy="346" r="32" fill="#f2b78d"/>
    <path d="M258 330c6-92 44-142 90-142s84 50 90 142c5 82-30 148-90 148s-95-66-90-148Z" fill="#f2b78d"/>
    <path d="M296 336h44M356 336h44" stroke="#111827" stroke-width="8" stroke-linecap="round"/>
    <path d="M340 336h16" stroke="#111827" stroke-width="5" stroke-linecap="round"/>
    <rect x="286" y="316" width="62" height="40" rx="17" fill="none" stroke="#111827" stroke-width="6"/>
    <rect x="358" y="316" width="62" height="40" rx="17" fill="none" stroke="#111827" stroke-width="6"/>
    <path d="M326 392c15 16 34 16 48 0" fill="none" stroke="#8b3f24" stroke-width="7" stroke-linecap="round"/>

    <path d="M222 330c-18-116 38-198 126-198s144 82 126 198" fill="none" stroke="#5eead4" stroke-width="16" stroke-linecap="round"/>
    <rect x="196" y="304" width="42" height="84" rx="18" fill="#0f766e"/>
    <rect x="458" y="304" width="42" height="84" rx="18" fill="#0f766e"/>
    <path d="M458 388c0 34-30 52-74 52" fill="none" stroke="#5eead4" stroke-width="8" stroke-linecap="round"/>
    <circle cx="380" cy="440" r="8" fill="#5eead4"/>

    <path d="M236 494c30-64 196-64 226 0l34 114H202l34-114Z" fill="#0f766e"/>
    <path d="M198 604h300" stroke="#5eead4" stroke-width="10" stroke-linecap="round"/>
    <path d="M286 512h126l18 70H268l18-70Z" fill="#102a2a"/>
    <path d="M320 544h58" stroke="#bfdbfe" stroke-width="8" stroke-linecap="round"/>
  </g>

  <g transform="translate(78 374)" opacity=".84">
    <rect width="244" height="150" rx="20" fill="#0d1f24" stroke="#334155" stroke-width="3"/>
    <path d="M36 52h82M36 88h142" stroke="#5eead4" stroke-width="9" stroke-linecap="round"/>
    <path d="M36 118h92" stroke="#bfdbfe" stroke-width="9" stroke-linecap="round"/>
    <path d="M178 42l24 24-24 24" fill="none" stroke="#f59e0b" stroke-width="9" stroke-linecap="round" stroke-linejoin="round"/>
  </g>
</svg>
